# xmcd
#
# Track frame offsets: 
#        150
#        24399
#        47513
#        71610
#        97285
#        122736
#        149913
#        173113
#        202458
#        233830
#        256803
#        279775
#
# Disc length: 4148 seconds
#
# Revision: 0
# Processed by: cddbd v1.5.2PL0 Copyright (c) Steve Scherf et al.
# Submitted via: ExactAudioCopy v0.99pb3
#
DISCID=b510320c
DTITLE=Various Artist - Titolo sel
DYEAR=1900
DGENRE=Acid Jazz
TTITLE0=CAROLINA MARQUEZ - Bisex alarm
TTITLE1=PINKY TONGUE - Come to me
TTITLE2=PREZIOSO feat MARVIN - Voglio vederti danzare
TTITLE3=SILIVE LORRAINE - You belong to me
TTITLE4=T42 feat SHARP - Find time
TTITLE5=DJ LHASA vs GABRY PONTE - Giulia
TTITLE6=VANNI G - Time is over
TTITLE7=RHYTHM GANGSTA - The crowd song
TTITLE8=FLOORFILLA - Anthem #5
TTITLE9=DANIJAY feat HELLEN - Il gioco dell'amore
TTITLE10=MASH - Are you ready
TTITLE11=GABRY PONTE - La danza delle streghe
EXTD=
EXTT0=
EXTT1=
EXTT2=
EXTT3=
EXTT4=
EXTT5=
EXTT6=
EXTT7=
EXTT8=
EXTT9=
EXTT10=
EXTT11=
PLAYORDER=
